<?xml version="1.0" encoding="utf-8"?>
<svg xmlns="http://www.w3.org/2000/svg" viewBox="0 0 600 200">
<style type="text/css">
	@font-face{
		font-family:'Open Sans Light';
		src:url(//mozorg.cdn.mozilla.net/media/fonts/OpenSans-LightItalic-webfont.eot);
		src:url(//mozorg.cdn.mozilla.net/media/fonts/OpenSans-LightItalic-webfont.eot?#iefix) format('embedded-opentype'),url(//mozorg.cdn.mozilla.net/media/fonts/OpenSans-LightItalic-webfont.woff) format('woff'),url(//mozorg.cdn.mozilla.net/media/fonts/OpenSans-LightItalic-webfont.ttf) format('truetype'),url(//mozorg.cdn.mozilla.net/media/fonts/OpenSans-LightItalic-webfont.svg#OpenSansRegular) format('svg');
		font-weight:400;
		font-style:italic
	}

	@font-face{
		font-family:'Open Sans';
		src:url(//mozorg.cdn.mozilla.net/media/fonts/OpenSans-Regular-webfont.eot);
		src:url(//mozorg.cdn.mozilla.net/media/fonts/OpenSans-Regular-webfont.eot?#iefix) format('embedded-opentype'),url(//mozorg.cdn.mozilla.net/media/fonts/OpenSans-Regular-webfont.woff) format('woff'),url(//mozorg.cdn.mozilla.net/media/fonts/OpenSans-Regular-webfont.ttf) format('truetype'),url(//mozorg.cdn.mozilla.net/media/fonts/OpenSans-Regular-webfont.svg#OpenSansRegular) format('svg');
		font-weight:400;
		font-style:normal
	}

	.st0{font-family:'Open Sans Light', sans-serif; font-style:italic;}
	.st1{font-size:14px; text-anchor:middle;}
	.st2{font-family:'Open Sans', sans-serif;}
</style>
<g id="Server">
	<g id="Hardware_1_">
		<path id="Container_2_" d="M45,55c16.6,0,30,13.4,30,30s-13.4,30-30,30s-30-13.4-30-30S28.4,55,45,55 M45,50
			c-19.3,0-35,15.7-35,35s15.7,35,35,35s35-15.7,35-35S64.3,50,45,50L45,50z"/>
		<text x="45" y="90" class="st0 st1">Files</text>
	</g>
	<g id="Software_1_">
		<path id="Container_3_" d="M125,55c16.6,0,30,13.4,30,30s-13.4,30-30,30s-30-13.4-30-30S108.4,55,125,55 M125,50
			c-19.3,0-35,15.7-35,35s15.7,35,35,35s35-15.7,35-35S144.3,50,125,50L125,50z"/>
		<text><tspan  x="125" y="80" class="st0 st1">HTTP</tspan> <tspan  x="125" y="97" class="st0 st1">server</tspan></text>
	</g>
	<path id="Container_1_" d="M85,5c44.1,0,80,35.9,80,80s-35.9,80-80,80S5,129.1,5,85S40.9,5,85,5 M85,0C38.1,0,0,38.1,0,85
		s38.1,85,85,85s85-38.1,85-85S131.9,0,85,0L85,0z"/>
	<text x="85" y="195" class="st2 st1">Web server</text>
</g>
<g id="Browser">
	<g id="Computer_2_">
		<path id="Screen_2_" d="M550,57.6v40h-70v-40H550 M550,52.6h-70c-2.8,0-5,2.2-5,5v40c0,2.8,2.2,5,5,5h70c2.8,0,5-2.2,5-5v-40
			C555,54.9,552.8,52.6,550,52.6L550,52.6z"/>
		<path id="Keyboard_2_" d="M565,110.6H465c-2.8,0-5-2.2-5-5v0h110v0C570,108.4,567.8,110.6,565,110.6z"/>
	</g>
	<path id="Container_5_" d="M515,5.6c44.1,0,80,35.9,80,80s-35.9,80-80,80s-80-35.9-80-80S470.9,5.6,515,5.6 M515,0.6
		c-46.9,0-85,38.1-85,85s38.1,85,85,85s85-38.1,85-85S561.9,0.6,515,0.6L515,0.6z"/>
	<text x="515" y="195" class="st2 st1">Browser</text>
</g>
<g id="HTTP">
	<polygon id="left_arrow" points="175,54 175,48 165,55.5 175,63 175,57.1 440,57.1 440,54 	"/>
	<polygon id="right_arrow" points="425,113 425,107 435,114.5 425,122 425,116.1 160,116.1 160,113 	"/>
	<text x="375" y="73" class="st0 st1">HTTP Request</text>
	<text x="227" y="107" class="st0 st1">HTTP Response</text>
</g>
</svg>

